<svg width="125" height="56" viewBox="0 0 125 56" fill="none" xmlns="http://www.w3.org/2000/svg">
<path d="M96.5956 47.9997C95.8622 47.9997 95.2665 48.5966 95.2665 49.3316C95.2665 50.0666 95.8622 50.6635 96.5956 50.6635C97.3271 50.6635 97.9227 50.0666 97.9227 49.3316C97.9227 48.5966 97.3277 47.9997 96.5956 47.9997ZM96.5956 50.8054C95.7828 50.8054 95.1224 50.1442 95.1224 49.3316C95.1224 48.5171 95.7828 47.8578 96.5956 47.8578C97.4065 47.8578 98.0662 48.5171 98.0662 49.3316C98.0669 50.1442 97.4071 50.8054 96.5956 50.8054ZM96.8051 49.2756C96.8547 49.268 96.8966 49.2533 96.9321 49.2285C96.9677 49.2062 96.9963 49.1757 97.0191 49.1356C97.0413 49.0955 97.0515 49.0446 97.0515 48.9822C97.0515 48.897 97.0267 48.8251 96.9778 48.7697C96.9309 48.7169 96.8553 48.6882 96.7473 48.6882H96.1797V49.2864H96.654C96.7092 49.2871 96.7581 49.2839 96.8051 49.2756ZM96.7581 48.4973C96.9207 48.4973 97.0496 48.5374 97.1404 48.617C97.235 48.6991 97.2788 48.8085 97.2788 48.9472C97.2788 49.0516 97.256 49.1426 97.209 49.2222C97.162 49.2998 97.0864 49.3545 96.9823 49.3832V49.387C97.0312 49.3972 97.0731 49.4137 97.1029 49.4366C97.1334 49.4589 97.1576 49.4856 97.1785 49.5162C97.195 49.548 97.2109 49.5823 97.2185 49.6199C97.228 49.66 97.2357 49.6994 97.2395 49.7408C97.2433 49.7822 97.2452 49.8248 97.2452 49.8681C97.249 49.9113 97.2528 49.9533 97.2585 49.9947C97.2642 50.0361 97.2757 50.0762 97.2871 50.1143C97.2985 50.1525 97.3157 50.1843 97.3398 50.2149H97.0852C97.0699 50.1958 97.0604 50.1735 97.0547 50.143C97.0483 50.1124 97.0445 50.0781 97.0426 50.0405C97.0426 50.0023 97.0388 49.9629 97.0369 49.9196C97.035 49.8763 97.0312 49.8324 97.0236 49.7911C97.0159 49.751 97.009 49.7096 96.9988 49.6727C96.9893 49.6352 96.9747 49.6014 96.9537 49.5747C96.9334 49.5467 96.9048 49.5238 96.8724 49.5066C96.8381 49.4901 96.795 49.4824 96.7378 49.4824H96.1803V50.2155H95.9536V48.4986H96.7581V48.4973Z" fill="#AD8B6F"/>
<path d="M73.2212 16.9438C73.2212 19.4237 72.1436 20.0461 69.7668 20.0461C67.2376 20.0461 65.2723 19.2405 63.8391 17.9315C65.906 16.044 67.1582 13.3325 67.1582 9.79491C67.1582 6.72509 66.0178 4.34382 64.3877 2.77455C64.3617 2.74973 64.3331 2.72936 64.3052 2.70455C64.443 2.61036 64.5693 2.50409 64.7167 2.41627C66.1822 1.50309 68.0726 1.07864 70.257 1.07864C71.6223 1.07864 72.4706 1.24155 72.7945 1.50309C73.0917 1.69845 73.2218 2.05864 73.2218 3.36382L73.2212 16.9438ZM60.8705 10.2512C60.8705 8.10854 61.3791 6.14345 62.4186 4.599C63.4568 6.14345 63.9661 8.10854 63.9661 10.2512C63.9661 12.453 63.453 14.5339 62.4186 16.2107C61.3804 14.5339 60.8705 12.453 60.8705 10.2512ZM55.0691 20.0461C52.6923 20.0461 51.6185 19.4244 51.6185 16.9438V3.36382C51.6185 2.058 51.7468 1.69845 52.0401 1.50309C52.3653 1.24155 53.2124 1.07864 54.5814 1.07864C56.7645 1.07864 58.6518 1.50309 60.1193 2.41627C60.2666 2.50345 60.3936 2.60973 60.5314 2.70455C60.5047 2.72936 60.4749 2.75036 60.4463 2.77455C58.8181 4.34382 57.6783 6.72509 57.6783 9.79491C57.6783 13.3325 58.9305 16.044 60.9968 17.9315C59.5636 19.2405 57.6008 20.0461 55.0691 20.0461ZM75.9892 17.1729V4.04918C75.9892 1.24091 76.2502 1.11045 78.7571 0.913182V0H69.636C66.6693 0 64.2829 0.428273 62.4186 1.38918C60.553 0.428273 58.1666 0 55.2018 0H46.0788V0.913818C48.5877 1.11109 48.8486 1.24155 48.8486 4.04982V17.1735C48.8486 19.95 48.5877 20.1447 45.7854 20.3401V21.2227H53.4733C57.0674 21.2227 60.0685 20.5444 62.4186 19.0171C64.7687 20.5444 67.7697 21.2227 71.3638 21.2227H79.0499V20.3401C76.2502 20.1441 75.9892 19.9494 75.9892 17.1729Z" fill="#C1A892"/>
<path d="M23.034 26.383C21.3722 26.6273 21.1036 26.8488 20.3968 28.854C19.833 30.4455 18.368 34.9968 16.3671 41.8511H15.4857C14.1681 37.9571 12.5552 33.4555 11.2846 29.8811H11.2357C9.86854 34.0893 8.54901 37.9565 7.30313 41.8511H6.44779C5.15429 37.4188 3.81 33.1609 2.4657 28.7814C1.85483 26.7998 1.46558 26.5783 0 26.3823V25.6715H6.17855V26.3823C4.37134 26.6025 4.32181 26.824 4.68884 28.0706C5.61721 31.2989 6.54558 34.5297 7.59651 37.8598H7.64349C8.91413 33.8195 10.2813 29.8308 11.503 25.8917H12.2853C13.6525 29.8575 15.0686 33.7966 16.5335 37.884H16.583C17.6092 34.6761 18.9027 30.0522 19.2691 28.3646C19.6113 26.8959 19.5155 26.6025 17.5851 26.3823V25.6715H23.0321V26.383H23.034Z" fill="#161215"/>
<path d="M37.4193 37.6874C37.2719 38.544 36.7862 40.8215 36.5646 41.5794H24.6697V40.8686C26.8668 40.6981 27.0637 40.5282 27.0637 38.495V28.8292C27.0637 26.6281 26.8668 26.5555 24.9872 26.3831V25.6722H35.9791C36.0013 26.2354 36.1245 27.9256 36.1982 29.2219L35.4647 29.3428C35.2457 28.3405 34.9764 27.7525 34.6348 27.239C34.2925 26.7235 33.6328 26.5549 31.9481 26.5549H30.1892C29.4068 26.5549 29.3592 26.6268 29.3592 27.3605V32.867H31.5576C33.7299 32.867 33.8772 32.6716 34.1947 31.0311H34.9263V35.7548H34.1947C33.8772 34.0175 33.6804 33.8711 31.5576 33.8711H29.3586V38.3976C29.3586 39.573 29.5059 40.1126 29.9447 40.4066C30.4076 40.6981 31.2642 40.6981 32.4123 40.6981C34.1712 40.6981 34.9028 40.5027 35.44 39.8905C35.8578 39.3751 36.3194 38.5433 36.6858 37.5659L37.4193 37.6874Z" fill="#161215"/>
<path d="M45.113 38.3244C45.113 40.1609 45.8445 40.649 47.6047 40.649C51.9519 40.649 54.1014 37.3692 54.1014 33.3805C54.1014 30.8847 53.1978 28.7554 51.3899 27.6316C50.3143 26.8718 48.8976 26.5307 47.2605 26.5307C46.2604 26.5307 45.6495 26.6516 45.4298 26.8228C45.1841 27.0194 45.1123 27.3115 45.1123 28.2189L45.113 38.3244ZM47.7012 25.6729C50.8045 25.6729 53.1241 26.3092 54.6386 27.7531C55.8356 28.9279 56.715 30.7148 56.715 33.0139C56.715 35.9508 55.567 38.1278 53.7109 39.5494C51.8789 40.9437 49.4132 41.5807 46.4065 41.5807H40.5454V40.8699C42.5971 40.7241 42.8181 40.5778 42.8181 38.4956V28.756C42.8181 26.6522 42.6212 26.5536 40.7404 26.4079V25.6729H47.7012Z" fill="#161215"/>
<path d="M64.7491 38.3244C64.7491 40.1609 65.4831 40.649 67.2414 40.649C71.5886 40.649 73.74 37.3692 73.74 33.3805C73.74 30.8847 72.832 28.7554 71.0286 27.6316C69.9548 26.8718 68.5362 26.5307 66.8985 26.5307C65.8984 26.5307 65.2882 26.6516 65.0685 26.8228C64.8227 27.0194 64.7484 27.3115 64.7484 28.2189L64.7491 38.3244ZM67.3399 25.6729C70.4431 25.6729 72.7609 26.3092 74.2753 27.7531C75.4742 28.9279 76.353 30.7148 76.353 33.0139C76.353 35.9508 75.2031 38.1278 73.3489 39.5494C71.5163 40.9437 69.0493 41.5807 66.0445 41.5807H60.1834V40.8699C62.2345 40.7241 62.4542 40.5778 62.4542 38.4956V28.756C62.4542 26.6522 62.2592 26.5536 60.3777 26.4079V25.6729H67.3399Z" fill="#161215"/>
<path d="M79.9173 41.5807V40.8699C81.8985 40.7242 82.0915 40.5784 82.0915 38.4962V28.7561C82.0915 26.6771 81.8985 26.5294 79.9173 26.3831V25.6722H86.5613V26.3831C84.5839 26.5288 84.3871 26.6764 84.3871 28.7561V38.4956C84.3871 40.5778 84.5839 40.7241 86.5613 40.8692V41.5801L79.9173 41.5807Z" fill="#161215"/>
<path d="M106.907 26.383C105.542 26.4549 104.978 26.775 104.857 27.8518C104.785 28.6097 104.711 29.7106 104.711 31.962V41.8244H103.878L93.5215 29.1003H93.4739V35.1184C93.4739 37.345 93.5495 38.5223 93.6231 39.2306C93.7438 40.4549 94.2791 40.7731 95.991 40.8711V41.58H90.1522V40.8711C91.5435 40.7731 92.1525 40.4549 92.2775 39.2796C92.3512 38.5223 92.4484 37.345 92.4484 35.1184V29.7844C92.4484 28.0471 92.3988 27.8518 91.96 27.2892C91.4705 26.677 90.9333 26.4817 89.8099 26.3837V25.6729H93.571L103.611 37.6632H103.685V31.962C103.685 29.7106 103.587 28.6097 103.513 27.9014C103.393 26.8005 102.829 26.4823 101.119 26.3837V25.6729H106.907V26.383Z" fill="#161215"/>
<path d="M124.837 34.8734C123.419 35.0936 123.298 35.2164 123.298 36.6851V38.7406C123.298 39.599 123.322 40.4059 123.468 41.0671C121.954 41.4101 119.927 41.9485 117.972 41.9485C112.552 41.9485 108.96 38.6178 108.96 33.7477C108.96 28.0955 113.502 25.3057 118.339 25.3057C120.368 25.3057 122.249 25.8192 123.053 26.0139C123.126 26.8705 123.252 28.2177 123.444 29.8569L122.711 30.0294C122.128 27.0678 120.272 26.1864 117.948 26.1864C114.36 26.1864 111.672 28.9285 111.672 33.4282C111.672 37.002 113.697 41.0665 118.267 41.0665C119.05 41.0665 119.782 40.9195 120.272 40.6503C120.734 40.4053 121.003 40.0623 121.003 39.1071V36.9791C121.003 35.2158 120.858 35.0675 118.435 34.8721V34.1632H124.838V34.8734H124.837Z" fill="#161215"/>
<path d="M23.034 26.383C21.3722 26.6273 21.1036 26.8488 20.3968 28.854C19.833 30.4455 18.368 34.9968 16.3671 41.8511H15.4857C14.1681 37.9571 12.5552 33.4555 11.2846 29.8811H11.2357C9.86854 34.0893 8.54901 37.9565 7.30313 41.8511H6.44779C5.15429 37.4188 3.81 33.1609 2.4657 28.7814C1.85483 26.7998 1.46558 26.5783 0 26.3823V25.6715H6.17855V26.3823C4.37134 26.6025 4.32181 26.824 4.68884 28.0706C5.61721 31.2989 6.54558 34.5297 7.59651 37.8598H7.64349C8.91413 33.8195 10.2813 29.8308 11.503 25.8917H12.2853C13.6525 29.8575 15.0686 33.7966 16.5335 37.884H16.583C17.6092 34.6761 18.9027 30.0522 19.2691 28.3646C19.6113 26.8959 19.5155 26.6025 17.5851 26.3823V25.6715H23.0321V26.383H23.034Z" fill="#161215"/>
<path d="M37.4193 37.6874C37.2719 38.544 36.7862 40.8215 36.5646 41.5794H24.6697V40.8686C26.8668 40.6981 27.0637 40.5282 27.0637 38.495V28.8292C27.0637 26.6281 26.8668 26.5555 24.9872 26.3831V25.6722H35.9791C36.0013 26.2354 36.1245 27.9256 36.1982 29.2219L35.4647 29.3428C35.2457 28.3405 34.9764 27.7525 34.6348 27.239C34.2925 26.7235 33.6328 26.5549 31.9481 26.5549H30.1892C29.4068 26.5549 29.3592 26.6268 29.3592 27.3605V32.867H31.5576C33.7299 32.867 33.8772 32.6716 34.1947 31.0311H34.9263V35.7548H34.1947C33.8772 34.0175 33.6804 33.8711 31.5576 33.8711H29.3586V38.3976C29.3586 39.573 29.5059 40.1126 29.9447 40.4066C30.4076 40.6981 31.2642 40.6981 32.4123 40.6981C34.1712 40.6981 34.9028 40.5027 35.44 39.8905C35.8578 39.3751 36.3194 38.5433 36.6858 37.5659L37.4193 37.6874Z" fill="#161215"/>
<path d="M45.113 38.3244C45.113 40.1609 45.8445 40.649 47.6047 40.649C51.9519 40.649 54.1014 37.3692 54.1014 33.3805C54.1014 30.8847 53.1978 28.7554 51.3899 27.6316C50.3143 26.8718 48.8976 26.5307 47.2605 26.5307C46.2604 26.5307 45.6495 26.6516 45.4298 26.8228C45.1841 27.0194 45.1123 27.3115 45.1123 28.2189L45.113 38.3244ZM47.7012 25.6729C50.8045 25.6729 53.1241 26.3092 54.6386 27.7531C55.8356 28.9279 56.715 30.7148 56.715 33.0139C56.715 35.9508 55.567 38.1278 53.7109 39.5494C51.8789 40.9437 49.4132 41.5807 46.4065 41.5807H40.5454V40.8699C42.5971 40.7241 42.8181 40.5778 42.8181 38.4956V28.756C42.8181 26.6522 42.6212 26.5536 40.7404 26.4079V25.6729H47.7012Z" fill="#161215"/>
<path d="M64.7491 38.3244C64.7491 40.1609 65.4831 40.649 67.2414 40.649C71.5886 40.649 73.74 37.3692 73.74 33.3805C73.74 30.8847 72.832 28.7554 71.0286 27.6316C69.9548 26.8718 68.5362 26.5307 66.8985 26.5307C65.8984 26.5307 65.2882 26.6516 65.0685 26.8228C64.8227 27.0194 64.7484 27.3115 64.7484 28.2189L64.7491 38.3244ZM67.3399 25.6729C70.4431 25.6729 72.7609 26.3092 74.2753 27.7531C75.4742 28.9279 76.353 30.7148 76.353 33.0139C76.353 35.9508 75.2031 38.1278 73.3489 39.5494C71.5163 40.9437 69.0493 41.5807 66.0445 41.5807H60.1834V40.8699C62.2345 40.7241 62.4542 40.5778 62.4542 38.4956V28.756C62.4542 26.6522 62.2592 26.5536 60.3777 26.4079V25.6729H67.3399Z" fill="#161215"/>
<path d="M79.9173 41.5807V40.8699C81.8985 40.7242 82.0915 40.5784 82.0915 38.4962V28.7561C82.0915 26.6771 81.8985 26.5294 79.9173 26.3831V25.6722H86.5613V26.3831C84.5839 26.5288 84.3871 26.6764 84.3871 28.7561V38.4956C84.3871 40.5778 84.5839 40.7241 86.5613 40.8692V41.5801L79.9173 41.5807Z" fill="#161215"/>
<path d="M106.907 26.383C105.542 26.4549 104.978 26.775 104.857 27.8518C104.785 28.6097 104.711 29.7106 104.711 31.962V41.8244H103.878L93.5215 29.1003H93.4739V35.1184C93.4739 37.345 93.5495 38.5223 93.6231 39.2306C93.7438 40.4549 94.2791 40.7731 95.991 40.8711V41.58H90.1522V40.8711C91.5435 40.7731 92.1525 40.4549 92.2775 39.2796C92.3512 38.5223 92.4484 37.345 92.4484 35.1184V29.7844C92.4484 28.0471 92.3988 27.8518 91.96 27.2892C91.4705 26.677 90.9333 26.4817 89.8099 26.3837V25.6729H93.571L103.611 37.6632H103.685V31.962C103.685 29.7106 103.587 28.6097 103.513 27.9014C103.393 26.8005 102.829 26.4823 101.119 26.3837V25.6729H106.907V26.383Z" fill="#161215"/>
<path d="M124.837 34.8734C123.419 35.0936 123.298 35.2164 123.298 36.6851V38.7406C123.298 39.599 123.322 40.4059 123.468 41.0671C121.954 41.4101 119.927 41.9485 117.972 41.9485C112.552 41.9485 108.96 38.6178 108.96 33.7477C108.96 28.0955 113.502 25.3057 118.339 25.3057C120.368 25.3057 122.249 25.8192 123.053 26.0139C123.126 26.8705 123.252 28.2177 123.444 29.8569L122.711 30.0294C122.128 27.0678 120.272 26.1864 117.948 26.1864C114.36 26.1864 111.672 28.9285 111.672 33.4282C111.672 37.002 113.697 41.0665 118.267 41.0665C119.05 41.0665 119.782 40.9195 120.272 40.6503C120.734 40.4053 121.003 40.0623 121.003 39.1071V36.9791C121.003 35.2158 120.858 35.0675 118.435 34.8721V34.1632H124.838V34.8734H124.837Z" fill="#161215"/>
<path d="M88.406 53.6544C88.406 54.5446 88.6739 54.8259 89.5255 54.8259C91.4013 54.8259 92.4979 53.3604 92.4979 51.261C92.4979 50.0653 92.1087 49.0776 91.3898 48.5157C90.8774 48.0645 90.2081 47.8584 89.3801 47.8584C88.9057 47.8584 88.6371 47.9303 88.5406 48.0155C88.4428 48.1135 88.4066 48.2974 88.4066 48.6996L88.406 53.6544ZM89.5629 47.3938C91.0965 47.3938 92.2649 47.6986 93.0453 48.4432C93.6409 49.0153 94.1045 49.8947 94.1045 51.0434C94.1045 52.5185 93.5196 53.5914 92.5824 54.3117C91.6807 55.0092 90.4265 55.3255 88.9165 55.3255H85.8723V54.9354C86.8705 54.8615 86.9804 54.7763 86.9804 53.7396V48.9803C86.9804 47.9309 86.8705 47.8698 85.9822 47.7845V47.3945L89.5629 47.3938ZM80.4418 53.3114C80.3434 53.7886 80.0995 54.9844 79.9916 55.3255H74.2188V54.9354C75.2659 54.8501 75.3758 54.7763 75.3758 53.7396V48.9803C75.3758 47.9436 75.278 47.8698 74.3153 47.7845V47.3945H77.8358V47.7845C76.8979 47.8698 76.7886 47.9303 76.7886 48.9803V53.7759C76.7886 54.3747 76.8375 54.6064 77.0801 54.7164C77.2992 54.8125 77.6529 54.8374 78.0783 54.8374C78.6644 54.8374 79.0899 54.7654 79.3693 54.4352C79.5998 54.1908 79.8195 53.8007 80.0271 53.2019L80.4418 53.3114ZM64.3433 51.4455C64.8894 51.4455 65.292 51.3603 65.5834 51.1153C66.0108 50.7608 66.1924 50.2746 66.1924 49.6395C66.1924 48.321 65.4018 47.8456 64.6341 47.8456C64.3052 47.8456 64.1236 47.8946 64.0385 47.9685C63.9528 48.0397 63.9286 48.1746 63.9286 48.4553V51.4455H64.3433ZM68.8721 55.4355C68.7756 55.4355 68.641 55.4222 68.4949 55.4222C67.1792 55.3611 66.7048 55.0448 66.1803 54.2646C65.8266 53.7263 65.4622 53.0314 65.1085 52.409C64.9021 52.0552 64.6944 51.8961 64.208 51.8961H63.9286V53.739C63.9286 54.7515 64.0385 54.8495 64.9738 54.9347V55.3248H61.4794V54.9347C62.4173 54.8495 62.5386 54.7515 62.5386 53.739V48.9682C62.5386 47.9678 62.4307 47.8685 61.5283 47.7839V47.3938H64.7929C65.8025 47.3938 66.4115 47.5039 66.8877 47.8329C67.3735 48.1632 67.7024 48.699 67.7024 49.455C67.7024 50.5184 67.0198 51.1286 66.1689 51.4812C66.3638 51.8598 66.8388 52.6655 67.2033 53.2261C67.6288 53.8854 67.8859 54.2513 68.1526 54.5319C68.432 54.8367 68.6651 54.9844 68.9445 55.0703L68.8721 55.4355ZM49.1204 51.1293C49.1204 53.2891 50.1548 55.0206 51.7754 55.0206C53.0047 55.0206 54.0404 53.886 54.0404 51.6154C54.0404 49.126 52.9323 47.7101 51.4464 47.7101C50.1796 47.7101 49.1204 48.9554 49.1204 51.1293ZM55.6838 51.2744C55.6838 53.9108 53.808 55.5094 51.5442 55.5094C49.1941 55.5094 47.477 53.7505 47.477 51.4093C47.477 49.2736 48.9864 47.2233 51.6903 47.2233C53.8569 47.2233 55.6838 48.8587 55.6838 51.2744ZM42.2999 47.7845C41.4852 47.9055 41.3125 48.0537 40.9727 49.0655C40.6927 49.8464 39.9745 52.0444 38.9623 55.461H38.4162C37.745 53.592 37.0395 51.6295 36.3703 49.7993H36.3461C35.6991 51.751 35.0672 53.6174 34.4703 55.461H33.9223C33.2638 53.2649 32.6326 51.1655 31.95 49.0051C31.6573 48.0289 31.4509 47.8806 30.7327 47.7845V47.3945H34.1058V47.7845C33.1927 47.8946 33.1794 48.0397 33.3515 48.664C33.7769 50.176 34.2151 51.6765 34.6786 53.1656H34.7015C35.3098 51.3106 35.9435 49.3952 36.5277 47.4791H37.0402C37.7101 49.3952 38.4169 51.2992 39.1109 53.1905H39.1357C39.6221 51.6536 40.1809 49.5657 40.365 48.7983C40.5352 48.0652 40.4857 47.8813 39.5122 47.7845V47.3945H42.3012V47.7845H42.2999Z" fill="#AD8B6F"/>
<path d="M88.406 53.6544C88.406 54.5446 88.6739 54.8259 89.5255 54.8259C91.4013 54.8259 92.4979 53.3604 92.4979 51.261C92.4979 50.0653 92.1087 49.0776 91.3898 48.5157C90.8774 48.0645 90.2081 47.8584 89.3801 47.8584C88.9057 47.8584 88.6371 47.9303 88.5406 48.0155C88.4428 48.1135 88.4066 48.2974 88.4066 48.6996L88.406 53.6544ZM89.5629 47.3938C91.0965 47.3938 92.2649 47.6986 93.0453 48.4432C93.6409 49.0153 94.1045 49.8947 94.1045 51.0434C94.1045 52.5185 93.5196 53.5914 92.5824 54.3117C91.6807 55.0092 90.4265 55.3255 88.9165 55.3255H85.8723V54.9354C86.8705 54.8615 86.9804 54.7763 86.9804 53.7396V48.9803C86.9804 47.9309 86.8705 47.8698 85.9822 47.7845V47.3945L89.5629 47.3938ZM80.4418 53.3114C80.3434 53.7886 80.0995 54.9844 79.9916 55.3255H74.2188V54.9354C75.2659 54.8501 75.3758 54.7763 75.3758 53.7396V48.9803C75.3758 47.9436 75.278 47.8698 74.3153 47.7845V47.3945H77.8358V47.7845C76.8979 47.8698 76.7886 47.9303 76.7886 48.9803V53.7759C76.7886 54.3747 76.8375 54.6064 77.0801 54.7164C77.2992 54.8125 77.6529 54.8374 78.0783 54.8374C78.6644 54.8374 79.0899 54.7654 79.3693 54.4352C79.5998 54.1908 79.8195 53.8007 80.0271 53.2019L80.4418 53.3114ZM64.3433 51.4455C64.8894 51.4455 65.292 51.3603 65.5834 51.1153C66.0108 50.7608 66.1924 50.2746 66.1924 49.6395C66.1924 48.321 65.4018 47.8456 64.6341 47.8456C64.3052 47.8456 64.1236 47.8946 64.0385 47.9685C63.9528 48.0397 63.9286 48.1746 63.9286 48.4553V51.4455H64.3433ZM68.8721 55.4355C68.7756 55.4355 68.641 55.4222 68.4949 55.4222C67.1792 55.3611 66.7048 55.0448 66.1803 54.2646C65.8266 53.7263 65.4622 53.0314 65.1085 52.409C64.9021 52.0552 64.6944 51.8961 64.208 51.8961H63.9286V53.739C63.9286 54.7515 64.0385 54.8495 64.9738 54.9347V55.3248H61.4794V54.9347C62.4173 54.8495 62.5386 54.7515 62.5386 53.739V48.9682C62.5386 47.9678 62.4307 47.8685 61.5283 47.7839V47.3938H64.7929C65.8025 47.3938 66.4115 47.5039 66.8877 47.8329C67.3735 48.1632 67.7024 48.699 67.7024 49.455C67.7024 50.5184 67.0198 51.1286 66.1689 51.4812C66.3638 51.8598 66.8388 52.6655 67.2033 53.2261C67.6288 53.8854 67.8859 54.2513 68.1526 54.5319C68.432 54.8367 68.6651 54.9844 68.9445 55.0703L68.8721 55.4355ZM49.1204 51.1293C49.1204 53.2891 50.1548 55.0206 51.7754 55.0206C53.0047 55.0206 54.0404 53.886 54.0404 51.6154C54.0404 49.126 52.9323 47.7101 51.4464 47.7101C50.1796 47.7101 49.1204 48.9554 49.1204 51.1293ZM55.6838 51.2744C55.6838 53.9108 53.808 55.5094 51.5442 55.5094C49.1941 55.5094 47.477 53.7505 47.477 51.4093C47.477 49.2736 48.9864 47.2233 51.6903 47.2233C53.8569 47.2233 55.6838 48.8587 55.6838 51.2744ZM42.2999 47.7845C41.4852 47.9055 41.3125 48.0537 40.9727 49.0655C40.6927 49.8464 39.9745 52.0444 38.9623 55.461H38.4162C37.745 53.592 37.0395 51.6295 36.3703 49.7993H36.3461C35.6991 51.751 35.0672 53.6174 34.4703 55.461H33.9223C33.2638 53.2649 32.6326 51.1655 31.95 49.0051C31.6573 48.0289 31.4509 47.8806 30.7327 47.7845V47.3945H34.1058V47.7845C33.1927 47.8946 33.1794 48.0397 33.3515 48.664C33.7769 50.176 34.2151 51.6765 34.6786 53.1656H34.7015C35.3098 51.3106 35.9435 49.3952 36.5277 47.4791H37.0402C37.7101 49.3952 38.4169 51.2992 39.1109 53.1905H39.1357C39.6221 51.6536 40.1809 49.5657 40.365 48.7983C40.5352 48.0652 40.4857 47.8813 39.5122 47.7845V47.3945H42.3012V47.7845H42.2999Z" fill="#AD8B6F"/>
</svg>
